<?xml version="1.0" encoding="UTF-8"?>
<svg xmlns="http://www.w3.org/2000/svg" width="640" height="214.001" version="1.1" viewBox="0 0 640 214.001">
  <path d="M409.631,113.15c2.466,2.03,3.262,5.254,2.219,8.399-.885,2.672-3.462,4.804-6.807,5.202-3.137.373-6.143-.265-8.138-2.605-1.921-2.253-2.262-5.334-.998-8.124,2.288-5.049,10.017-5.923,13.723-2.873ZM550.841,35.943c1.344-1.215,1.977-2.935,1.919-4.54-.057-1.567-.842-3.066-2.339-4.173-2.288-1.691-6.107-2.664-8.613-.72-4.162,3.229-7.413,7.396-10.252,11.789-.756,1.17,0,2.903.666,3.685,3.205,3.773,13.787-1.675,18.619-6.041ZM430.673,101.94c2.554.387,5.084.2,7.57-.548,2.525-.76,4.009-2.963,3.911-5.738-.351-10.003,1.365-25.497,8.743-32.132.901-.81,2.406-1.714,3.528-.926,1.222.858,1.393,2.812,1.218,4.242l-1.734,14.099c-.852,6.928-3.009,15.692,1.992,18.55,3.378,1.931,7.685,2.006,11.138.241,2.187-1.118,3.057-3.066,3.197-5.409l.782-13.085c.4-6.681,2.757-15.456,8.171-19.263.858-.603,1.918-.767,2.768-.314.724.386,1.115,1.422,1.152,2.487.353,10.324-3.896,19.149-.5,29.238,1.81,5.377,6.589,8.608,12.446,7.722,4.708-.712,9.196-3.7,11.881-7.591,1.266-1.835,1.38-4.84-.622-5.728-1.508-.669-3.865,2.768-6.256,1.949-2.008-.688-2.364-4.077-1.973-6.951l1.936-14.244c1.351-9.941.738-20.52-10.121-22.169-4.267-.648-8.557-.345-11.778,2.651l-6.588,6.127c-.599-3.846-2.747-6.662-6.241-7.886-8.855-3.102-16.57,2.942-20.597,11.346-.638-1.44-.159-2.903-.004-4.326.308-2.837-1.303-5.274-4.046-6.13-5.767-1.799-14.463.276-14.164,6.483l.377,7.798-1.175,15.267-1.086,16.933c-.242,3.772,2.387,6.749,6.075,7.307ZM370.014,82.369c-2.524-42.053,33.058-32.649,33.058-32.649,6.218,1.981,10.87,6.434,13.399,12.542,4.315,10.423,2.991,22.652-3.241,32.049-4.805,7.245-12.501,11.112-21.084,11.272-13.33.249-21.055-10.346-22.131-23.215ZM395.027,61.071c-5.232.132-7.939,10.127-8.017,16.276-.062,4.928.483,12.037,3.692,14.959,2.114,1.925,4.987,1.758,6.917-.524,1.879-2.222,3.077-4.82,3.67-7.657,1.608-7.684,1.32-23.245-6.262-23.054ZM482.836,108.022c-3.685,2.177-6.601,5.558-8.738,9.153-.759,1.277-.525,2.987.302,3.944.732.847,2.322,1.521,3.721,1.15,4.193-1.112,8.099-3.323,11.546-6.204,1.966-1.643,2.081-4.352.543-6.204-1.638-1.973-4.957-3.266-7.374-1.839ZM633.234,69.455c-.86,3.962-2.275,7.635-3.781,11.444-2.224,5.626-8.423,21.242-4.996,23.555.536.362,1.263.48,1.95.189l3.823-1.617c.502-.212,1.898-.59,2.183.037.95,2.095.264,4.619-1.251,6.352-6.47,7.396-18.003,6.503-21.814.465-.894-1.415-1.913-3.078-1.961-4.762l-.187-6.534c-3.202,2.815-6.419,5.274-10.268,7.124-12.036,5.784-26.561,1.538-30.619-11.611l-3.012,3.113c-3.443,3.557-7.645,6.343-12.674,6.68-7.002.47-11.469-4.272-11.845-11.611l-7.426,6.894c-2.345,2.177-5.585,3.419-8.948,3.05-6.181-.679-11.04-5.186-12.768-11.06-3.212-10.921,1.249-24.368,8.275-33.225,6.102-7.691,15.248-12.442,24.632-8.847l3.695,2.436c1.021.103,1.61-.882,2.446-1.203,2.864-1.099,6.201-.757,8.855.722,2.553,1.423,3.929,4.199,3.302,6.99l-2.436,10.843-3.114,12.159c-.903,3.527-1.323,10.346.945,11.56,2.136,1.143,6.045-2.438,8.479-4.937-.117-17.04,11.844-36.478,29.964-36.081,4.559.1,8.703,1.612,11.735,4.871,3.257,3.501,4.029,8.257,2.018,12.584-1.754,3.775-5.016,6.654-9.171,7.433-2.165.405-4.607-.726-5.117-2.905-.6-2.563,3.405-4.534,2.846-8.376-.186-1.278-1.256-2.09-2.673-1.833-2.146.39-4.072,1.62-5.489,3.457-4.493,5.828-6.936,13.252-6.62,20.671.125,2.943,1.08,5.754,3.149,7.706,5.872,5.541,16.174.306,22.133-4.684,1.504-1.26,2.528-2.884,3.078-4.787l5.578-19.3c.608-2.104.495-3.745,2.711-4.717,3.397-1.491,7.493-1.47,10.911.236,2.899,1.447,4.15,4.35,3.462,7.519ZM543.418,61.523c-1.043-1.473-2.791-2.379-4.583-1.999-2.134.453-3.88,1.826-5.314,3.522-9.553,11.299-9.721,27.822-3.174,25.44,4.755-1.73,8.313-9.277,9.579-13.984l3.492-12.98ZM571.139,127.274c1.959-1.223,3.125-3.185,3.296-5.006.211-2.237-.498-4.366-2.137-5.926-3.044-2.899-7.834-3.378-11.523-1.342-2.077,1.146-3.205,3.387-3.445,5.331-.304,2.457.475,4.746,2.331,6.329,3.208,2.737,7.814,2.902,11.478.614ZM306.276,120.831c-.458-.947-.522-1.941-.086-2.962.871-2.04,4.266-2.392,7.276-1.903l-13.053-57.845c-5.444,3.662-6.263,10.796-3.429,15.933.61,1.105-.102,2.287-.919,2.934-5.046,3.999-12.864-1.38-14.536-7.381-1.875-6.729.457-13.6,5.527-18.278,9.406-8.679,26.452-11.873,39.356-10.82,19.465,1.588,33.851,15.096,37.437,33.884.851,4.491.405,13.161.405,13.161-2.867,23.271-22.424,37.34-45.049,38.393-4.973.232-10.862-.843-12.929-5.117ZM318.003,52.627l12.362,58.837c6.148-2.734,10.496-7.915,12.809-14.229,6.003-16.389.474-39.767-17.891-44.669l-7.279.061ZM635.9,41.578c-5.192-3.067-12.169-1.979-14.539,3.698-1.134,2.717-1.08,5.575.533,7.966,2.844,4.217,8.382,5.337,13.059,3.119,3.024-1.434,4.912-4.129,5.04-7.145.13-3.076-1.318-5.999-4.092-7.638ZM527.185,123.123c2.493,1.828,5.607,1.981,8.361.533,3.406-1.791,6.398-4.315,9.177-7.153,1.048-1.07,1.263-2.553.79-3.653-.418-.972-1.451-2.002-2.833-2.18-3.976-.51-7.756,1.773-9.864,5.026-1.259-.959-1.843-2.151-2.732-3.263-2.756-3.448-8.473-3.569-9.663-1.202-1.804,3.589,3.12,9.219,6.764,11.892ZM613.474,153.808l-9.207,4.247c2.392,7.052,7.288,23.067,15.075,18.89.671-.36,1.542-.496,1.99-.18,1.973,1.39.488,5.686-3.626,8.726-5.778,4.27-13.385,3.238-17.678-2.543-1.979-2.665-3.484-5.523-4.469-8.751l-3.26-10.689c-1.711,2.986-1.967,6.126-2.613,9.283l-1.62,7.915c-.377,1.842-6.674,3.877-11.871.337-1.621-1.104-2.484-3.037-2.187-4.943l.703-4.5-5.987,4.976c-2.613,2.172-5.86,3.354-9.29,3.328-4.433-.034-8.227-2.509-9.789-6.758-.976-2.655-.947-5.245-.437-7.954-1.821,1.079-2.884,2.693-4.374,4.153-5.245,5.143-12.274,8.039-19.646,7.874-8.075-.181-14.774-4.674-18.028-12.115-4.917,7.43-15.266,13.394-22.235,7.449-2.058-1.937-3.039-4.395-3.867-7.299-4.215,7.005-12.356,11.902-19.486,8.592-4.266-1.981-6.725-5.739-8.132-10.63-2.992,5.613-7.019,9.859-12.791,11.855-5.081,1.757-10.713.233-13.569-4.404l-2.425-5.746c-.711.201-.653,1.149-.967,1.655-4.603,7.409-13.627,13.964-21.42,9.559-2.465-1.393-3.877-3.985-4.511-6.657-.109-.458-.396-.938-.982-.932-1.815,4.269-4.891,7.878-8.977,9.951-5.974,3.03-12.673.486-15.145-5.71-1.448-3.629-1.849-7.407-2.096-11.364l-.802-12.843c-.074-1.181-.91-3.727-2.334-3.607-2.793.654-4.437,3.627-5.288,6.234-1.735,5.313-1.602,10.843-.86,16.388l1.317,9.844c.283,2.118-.726,3.847-2.623,4.882-4.894,2.67-12.276,2.02-12.789-2.37l-.886-7.592-.411-12.879c-.109-3.424-.859-9.532-2.541-10.131-2.375-.846-5.235,4.242-6.209,8.099-1.563,6.188-1.55,12.538-.512,18.832l.703,6.603c.396,3.724-5.536,6.298-10.414,5.552-2.859-.438-4.97-2.51-5.243-5.354l-1.634-17.024-1.306-16.002-1.11-4.968c-.993-4.443,5.56-7.183,10.031-7.105,2.654.046,4.831,1.484,5.766,3.865l.795,4.221,3.389-5.842c3.738-6.443,13.486-7.649,17.055-4.017l3.683,3.748c2.435-5.55,7.696-9.215,13.773-9.589,8.858-.546,13.128,7.51,13.233,16.209l.155,12.806c.04,3.297.852,8.302,2.91,8.714,2.443.489,6.598-5.548,7.691-8.995.89-2.807.615-5.888.447-8.784l-.787-13.574c-.141-2.435.62-4.561,2.89-5.771,3.163-1.685,7.133-1.815,10.397-.35,1.914.859,2.642,2.461,2.576,4.433l-.463,13.893c-.175,5.263-1.17,15.624,2.189,16.781,1.238.426,2.925-.246,3.879-1.216,2.342-2.383,4.813-4.863,6.153-8.025.951-2.245.465-5.101.493-7.528l.169-14.289,2.197-22.918c.255-2.663,7.139-4.483,13.028-2.827,2.498.702,3.826,2.787,3.86,5.448.08,6.304-1.046,12.341-1.776,18.645l-2.314,19.979c-.416,3.588.328,10.286,2.967,11.139,2.964.959,7.479-3.918,9.564-7.314.781-1.272,1.05-2.69,1.223-4.213,1-8.811,5.204-16.934,12.165-22.406,4.235-3.329,9.307-4.909,14.597-4.199l5.561,2.39,5.575-2.008c2.517-.105,5.028.96,6.894,2.615,2.154,1.909.902,7.682.339,11.396l-2.421,15.974c-.398,2.623-.123,6.717,1.409,7.451,2.524,1.209,7.617-3.002,8.9-6.297.819-2.102.266-4.344.607-6.585,1.329-8.714,6.294-16.57,13.837-21.073,6.317-3.771,14.004-4.114,20.261-.395,3.423,2.035,5.352,5.709,5.304,9.44-.086,6.758-7.172,12.232-12.015,9.907-1.548-.743-2.134-2.271-1.417-3.809l1.617-3.47c.52-1.115.536-2.358-.392-3.214-4.207-3.88-12.921,8.321-11.55,20.043.565,4.835,4.032,8.114,8.817,8.363,7.532.392,15.123-5.589,19.252-11.654l4.833-20.473c.56-2.372,6.763-4.214,11.547-1.925,5.93,2.837,2.613,10.292.794,16.682l-2.933,10.302c-.868,3.049-1.335,8.252.671,9.298,2.713,1.414,9.131-4.62,11.761-8.131l7.664-31.225,1.83-9.381c.387-1.984,1.388-3.48,3.493-4.067,7.602-2.121,13.221,2.623,12.513,5.32l-7.849,29.889c-.366.355.029.746.34.487,3.731-2.341,6.926-5.042,9.783-8.293l6.719-6.902c3.395-1.364,7.361-.598,9.757,2.219,2.452,2.883,2.045,6.793-.258,9.752-1.866,2.396-4.524,3.883-7.321,5.174ZM481.601,135.864c-2.182-.446-4.383.329-5.939,1.991-5.512,5.889-8.007,14.036-6.585,21.97.189,1.056,1.009,1.958,1.702,2.299.841.415,1.979.313,2.919-.208,5.685-3.15,8.782-16.362,9.415-23.451.1-1.116-.474-2.389-1.513-2.602Z"/>
  <path d="M122.527,134.431c1.801-2.489,2.288-5.816,1.454-8.769l-1.385-2.686-.019-2.94c-.873-5.791-5.145-10.284-10.873-11.484-9.086-1.905-17.914,3.72-20.474,12.613l-1.636,5.684c-.658,2.285-1.815,4.198-3.415,5.954-2.243,2.461-4.226,4.948-5.925,7.827l-4.703,7.876-5.328,8.097c-21.016-3.279-33.092-25.489-27.304-45.416l3.136-9.006c.797.325.947,1.075,1.403,1.613,4.625,5.464,10.942,9.56,18.29,10.24-.27,5.398,2.525,9.862,7.849,11.167,4.224,1.036,8.602-.04,12.09-2.608l2.672-7.704-3.806,2.527c-2.981,1.87-6.48,2.799-9.961,2.204-3.034-.519-5.342-2.639-5.913-5.575,8.34.161,16.217-4.17,20.456-11.298,2.2-3.699,1.931-6.877,2.924-8.296.651-.932,1.72-1.315,2.591-2.027,3.584-2.926,6.547-6.557,8.403-10.809l1.893-4.821c13.386,10.888,21.01,26.935,21.954,43.965.437,7.886-.18,15.663-1.851,23.382l-2.989,11.262c3.101-3.782,5.402-7.905,7.214-12.382,8.18-20.209,3.732-43.316-10.092-59.901l-3.395-3.94,3.314.507c1.939.297,3.713.646,5.737.585,7.923-.237,15.522-3.242,21.402-8.511,1.773-1.589,3.129-3.257,4.311-5.269.549-.934,1.083-1.773,2.051-2.595l3.862,7.047c1.56,2.846,4.735,10.111,4.296,12.749l-.539,3.236c-.978.474-1.902.173-2.906.324-6.115.922-11.482,4.653-14.442,10.075l-1.328,3.256c-.548,1.344-1.22,2.306-2.198,3.378-2.145,2.351-2.484,6.08-.893,8.812l1.618,1.753.344,2.017c1.918,3.775,5.299,4.949,5.479,5.462.063.179.002.422-.167.596l-2.445,3.608c-1.757,3.242-2.729,6.734-2.566,10.426-8.642,3.112-13.459,12.051-11.969,20.97l-2.116,1.153c-4.587,1.983-7.643,6.492-7.496,11.506-5.352.43-10.517.276-15.865-.543,4.786-3.256,8.861-7.229,11.933-12.111,3.122-4.946,4.855-10.416,4.977-16.266l.101-4.857,2.246-2.056ZM20.55,131.756c.383.86,1.857-1.027,1.524-2.729l-.674-3.444c-5.182-31.562,3.054-63.318,24.868-87.046,9.486-10.317,20.903-18.744,33.585-24.728,5.594-2.639,11.321-4.691,17.268-6.251,32.685-8.571,67.058.616,91.56,23.657,8.392,7.892,15.584,17.093,20.937,27.324,9.75,18.637,14.71,42.342,11.186,63.159-2.627,15.519-10.277,29.454-24.079,37.741.991-1.705,2.02-3.092,2.64-4.848l2.229-4.943,3.465-5.152c2.411-3.231,3.509-7.021,2.895-11.151-.275-1.851-.621-4.796-1.594-4.908-1.674-.194-4.691,3.678-5.729,5.742-1.903,3.788-2.156,8.062-1.169,12.131.334,1.376.315,2.683-.131,4.032-1.467,4.439-4.069,8.398-7.71,11.433.314-1.453,1.007-2.601,1.503-3.899l1.623-4.25c1.334-4.936-1.821-9.14-2.847-9.009-1.38.177-3.062,4.581-2.947,7.481.147,3.674,3.482,6.429.491,10.396-1.516,2.01-3.531,3.467-5.919,4.704.683.538,1.531.339,2.321.104,7.259-2.152,13.769-5.972,19.253-11.197,10.154-9.673,17.153-23.384,19.533-37.172,3.297-19.1.06-39.165-8.095-56.684-10.721-23.029-29.337-41.808-52.278-52.668C146.427,1.139,126.703-1.827,107.168,1.093,72.323,6.302,41.324,29.127,25.919,60.778c-7.57,15.554-11.045,32.708-10.032,49.955.414,7.04,1.826,14.659,4.662,21.023ZM1.944,152.049c-1.176.106-1.89.926-1.941,2.128-.059,1.377.79,2.414,2.316,2.373,1.516-.041,2.438-1.236,2.27-2.617-.153-1.258-1.287-2.006-2.645-1.884ZM156.257,42.726l.507,10.32c.159,3.232.578,7.889,2.463,10.163.741.894,1.824,1.104,2.864.391.8-.548,1.407-1.201,1.981-1.982,4.19-5.7,7.63-11.887,9.983-18.574,1.888-5.365,2.478-11.737-2.038-15.555-1.828-1.654-3.823-2.852-5.961-4.16-7.161-4.14-14.864-7.031-23.162-8.685,3.587,3.746,6.63,7.577,8.944,12.105,2.585,5.016,3.929,10.349,4.42,15.975ZM190.479,125.344c1.032-5.519,1.144-10.976.202-16.48-.621-3.628-1.7-6.97-2.799-10.458-2.496,1.743-5.106,3.141-8.042,4.196.328,2.146.547,4.156.484,6.279-.06,2.895-.692,5.602-2.03,8.207,5.123,7.282,7.657,13.602,7.566,22.925,2.236-4.768,3.672-9.612,4.618-14.671ZM151.476,48.624c.154,11.236-5.988,21.349-16.706,25.307-5.409,1.997-11.222,2.57-16.822,1.345-7.678-1.679-14.291-6.738-18.196-13.45-1.837-3.156-2.714-6.44-2.828-10.082-.262-8.359,1.5-16.607,5.28-24.038,4.504-8.855,11.974-15.328,22.239-15.462,18.415-.241,26.812,20.232,27.034,36.38ZM109.485,42.778c1.928.096,3.69-1.063,3.815-3.212.072-1.237-.326-2.282-1.085-3.005-.746-.709-1.84-.984-2.927-.873-1.81.184-3.027,1.579-3.019,3.412.009,1.954,1.395,3.586,3.217,3.677ZM139.878,62.25c0-.277-.342-.653-.538-.757-1.273,1.521-2.973,2.502-4.978,2.573-3.83.137-7.015-2.51-7.768-6.203-.203-.995.174-1.715,1.15-2.088,2.046-.783,3.704-2.294,4.355-4.415.525-1.711-.247-3.349-1.799-4.192-4.519-2.453-13.176-1.537-13.732,2.902-.416,3.322,2.653,4.654,5.405,6.377.359,3.059-1.461,5.741-4.23,6.962-2.988,1.318-6.358.778-8.576-1.902-.442.976.1,1.909.7,2.643,3.132,3.831,9.695,3.883,12.791-.047l1.978-2.511c1.275,3.428,4.18,5.386,7.495,5.492,3.297.105,6.398-1.737,7.748-4.835ZM138.579,35.601c-1.929.143-3.191,1.574-3.189,3.497.003,2.224,1.651,3.919,4.007,3.655,1.903-.214,3.049-1.663,3.068-3.466.023-2.23-1.682-3.849-3.886-3.685ZM73.602,32.651c-1.487,4.364.983,11.055,2.976,15.421,2.191,4.801,4.867,9.215,7.975,13.458.695.948,1.471,1.746,2.445,2.324,3.419,2.028,4.985-6.076,5.063-9.934l.155-7.666c.639-9.334,4.057-20.725,10.173-27.912,1.259-1.402,2.747-2.374,3.873-4.249-10.862,2.188-20.926,7.097-29.412,14.071-1.488,1.223-2.648,2.726-3.249,4.488ZM183.387,142.102c.378-2.579.082-5.731-2.117-7.276-4.264,8.783-12.661,16.014-20.561,21.679-7.904,5.668-16.329,10.288-24.881,14.556,6.38-1.679,12.091-4.258,17.804-7.268,11.004-5.798,20.854-13.16,29.755-21.692ZM123.337,168.69c.047-4.835,5.399-7.482,9.835-8.37-2.257-5.425-1.37-11.465,2.318-15.824,2.329-2.753,5.509-4.386,9.155-4.691-1.229-7.063,2.015-13.89,7.249-18.61l-5.078-2.601c-2.131-1.092-3.84-2.844-4.706-5.194,1.13-.992,2.228-2.045,2.265-3.597l-3.141,1.619c-.288-1.059-.671-2.086-.619-3.119.097-1.93,3.212-3.824,3.696-5.094l1.168-3.069c3.328-6.736,10.835-10.244,18.193-8.752l2.645-13.523c.825-4.22,2.216-8.11,3.936-12.036,2.062-4.767,6.22-11.109,10.844-13.162,1.568-.696,3.149-.178,3.884,1.339,1.461,3.016,1.277,8.433.321,11.671-1.109,3.754-2.552,7.415-4.686,10.678l-3.053,2.828-5.596,6.884c-1.528,2.302-2.938,4.606-3.541,7.518l3.661-3.905,5.594-6.343c3.812-4.001,8.43-6.942,13.773-8.42,1.341-.371,2.637-.562,3.997-.396,1.774.216,2.893,1.563,2.879,3.386-.088,10.926-14.394,18.99-23.998,21.845l1.334,4.114c1.201,4.785.104,9.624-2.242,13.963,3.297,3.99,5.662,8.52,6.854,13.581-8.31,12.038-18.4,22.619-31.216,29.827-1.891-5.821,1.608-11.826,7.482-12.969,2.561-.498,4.848.153,7.257,1.105-3.999-5.262-11.233-5.612-15.581-.95-3.215,3.447-4.226,8.416-2.659,12.855.187.529.613.886.542,1.537-7.049,3.515-14.544,5.882-22.364,6.852-.276.034-.479-.848-.403-.976ZM154.111,106.427c.858.529,1.984.494,2.808-.079.832-.578,1.137-1.699.803-2.796-.353-1.157-1.288-1.754-2.348-1.704-1.006.048-1.909.694-2.206,1.765-.302,1.09.035,2.253.943,2.813ZM47.226,84.491c.407-1.011,1.25-1.903,1.299-2.987.057-1.249-.691-2.316-.968-3.55-1.177-5.24-.95-10.766.725-15.834.259-.785.835-1.398,1.303-1.683.745-.453,1.679-.263,2.431.081,5.038,2.888,8.655,8.827,10.663,14.426,4.979-.245,9.855.684,14.369,2.871,4.583-4.489,9.917-8.122,16.171-9.556,1.052-.127,1.897.397,2.103,1.43,1.236,6.176-2.307,16.186-7.095,20.827.61,5.781-1.814,11.248-6.42,14.8-6.949,5.358-16.451,5.913-24.128,1.653-3.896-2.162-7.163-5.114-9.342-9-2.349-4.19-2.903-9.024-1.112-13.478ZM76.055,93.18c.787.948,2.154,1.033,3.223.539.953-.44,1.565-1.467,1.504-2.782-.057-1.25-.84-2.254-1.74-2.534-1.11-.344-2.312-.246-3.026.638-.953,1.18-.934,2.966.038,4.138ZM65.321,95.464c-.084,2.771-4.293,4.765-6.818,3.706-.663-.278-1.193-.782-2.067-.606.933,2.249,3.214,3.373,5.598,2.926,1.852-.347,3.273-1.42,4.511-2.98.391,2.532,2.251,4.761,4.825,5.182,1.851.302,3.822-.339,4.69-2.144-1.782.62-3.541.655-5.124-.363-1.391-.894-2.348-2.431-2.551-4.238-.061-.541.08-.907.668-1.13.944-.358,1.834-1.13,1.941-2.228.157-1.614-2.774-3.061-5.295-2.601-1.198.219-1.813,1.081-1.641,2.252.127.865.877,1.549,1.264,2.225ZM56.262,89.75c.909.848,2.314.753,3.252.181.865-.527,1.336-1.606,1.237-2.743-.096-1.098-.755-2.047-1.614-2.379-.973-.376-2.114-.275-2.904.448-1.24,1.133-1.279,3.273.029,4.493ZM6.66,177.49c-.294,1.129.047,2.219.88,2.833,1.775,1.307,4.185-.097,5.212-2.491.415-.874.607-1.874,1.266-2.493l4-3.749c-4.374.125-10.246,1.626-11.358,5.9ZM35.212,166.388c-.729-1.009-1.706-1.291-2.62-1.958-1.758-1.283-3.05-3.061-3.589-5.106-.733-2.782,1.49-5.909,1.466-9.19-.035-4.876-2.811-12.2-5.112-9.516-.987,1.151-1.429,2.55-1.875,3.979-.926,2.962-.634,5.884.788,8.621l2.632,5.068,1.432,3.537c-4.387-2.696-8.41-6.221-9.064-11.32l-.667-5.196c-.543-4.227-2.048-8.169-4.498-11.636-1.307-1.841-2.784-3.303-4.723-4.482-.131-.236-1.053-.651-1.254-.325-1.865,3.018-2.395,6.559-1.893,10.091.614,4.324,2.615,8.151,5.513,11.366,1.32,1.464,2.811,2.588,4.524,3.556,1.838,1.039,3.316,2.347,4.631,3.996,1.049,1.314,2.274,2.349,3.579,3.392l2.971,2.373-3.218-.243c-1.358.068-2.516-.409-3.571-1.257-2.576-2.071-5.538-3.358-8.911-3.387-3.618-.031-7.506,1.988-6.358,3.416,2.555,3.179,6.343,4.617,10.411,4.268l7.158-1.024c3-.429,5.846-.328,8.72.568,1.154.36,2.368.59,3.527.409ZM120.281,200.28l-.88-5.019-.889,5.117c.697.022,1.235.136,1.769-.098ZM124.169,188.183c.201-.013.385-.171.383-.538l-.02-3.637c-.001-.239-.245-.365-.396-.378-.138-.012-.415.057-.415.32l-.009,3.835c0,.3.263.41.458.397ZM118.582,179.632l17.442.003-.006,34.365h-34.327s-.009-34.365-.009-34.365h12.799s1.489-1.954,1.489-1.954c.626-.6,1.435-.693,2.086-.297.732.446.929,1.303.527,2.247ZM103.748,184.446l3.416,4.133c1.053,1.274,3.406,1.622,4.459.152l6.647-9.278c.45-.628.049-1.556-.46-1.802-.53-.256-1.249-.197-1.675.382l-6.056,8.226c-.244.332-.769.339-1.022.03l-2.898-3.532c-.539-.657-1.55-1.041-2.346-.445-.692.518-.548,1.549-.064,2.134ZM106.213,207.814c-.212-.032-.394-.045-.732-.002l-.01,1.47c-.441-.391-.346-.865-.501-1.308-.089-.254-.627-.266-.887-.134l-.016,3.275c.272.068.461.069.748.005-.003-.558-.076-.974.062-1.516l.519,1.472c.074.21.792.123.793-.061l.024-3.203ZM107.465,210l.707-.032c.326-.015.258-.913-.007-1.199-.237-.256-.76-.314-1.132-.137-.549.261-.764,2.416.296,2.583.47.074,1.101-.161,1.005-.876-.029-.217-.526-.182-.531-.028-.004.105-.058.42-.266.375-.395-.085-.287-.675-.071-.685ZM110.455,211.088c-.26-.612-.672-.417-1.027-.363.296-.862,1.097-1.31.866-2.138l-1.655.032c-.091.419.17.467.298.468l.584.007c-.19.717-1.024,1.187-.852,2.055l1.786-.06ZM112.252,208.915c-.157-.523-1.142-.502-1.45-.13-.148.179-.158.395-.121.554.025.107.313.144.434.084.099-.049.185-.206.295-.401.099-.176.353.024.32.152-.126.487-.872.465-1.04.956-.115.335-.092,1.046.262,1.035l1.368-.044c-.029-.748.143-1.503-.068-2.206ZM111.786,208.236c.34-.315.121-.502-.103-.478-.249.027-.286.136-.384.398-.056.149.207.338.486.08ZM112.443,200.997c-1.027,1.082-2.75,1.405-3.787.089-1.038-1.317-1.239-3.231-.543-4.626.41-.821,1.176-1.401,1.789-1.496.951-.147,1.696.079,2.401.636l.016-3.585c-1.095-.277-2.175-.335-3.295-.188-2.96.388-5.031,2.761-5.283,5.703-.163,1.903.067,3.784,1.241,5.323,1.685,2.208,4.654,2.813,7.185,1.907l.275-3.763ZM114.383,208.684c-.025-.148-.588-.172-.621.013l-.238,1.343-.309-1.433c-.138-.084-.516-.039-.579.085l.499,2.355c.055.175.742.196.777.018l.47-2.381ZM115.302,208.566h-.586s.03,2.53.03,2.53c.001.119.551.138.552-.079l.005-2.451ZM115.18,207.79c-.083-.027-.341-.086-.436.133-.163.38.099.446.249.448.154.002.273.002.34-.125.098-.186.004-.405-.153-.455ZM117.404,210.603c.037-.507-.422-.826-.696-1.086.435-.019.702-.211.621-.529-.047-.184-.185-.334-.475-.417-.443-.126-.967-.006-1.137.475-.246.695,1.556,1.244.802,1.815-.017-.47-.707-.677-.774-.454-.138.462.374.807.752.818.355.011.864-.06.905-.623ZM118.413,211.032l-.012-3.215c-.224-.042-.354-.05-.63.005l.004,3.276c.245.129.469.104.638-.066ZM120.552,208.634c-.317-.145-.671-.042-.692.07-.065.463-.088,1.012-.292,1.354l-.225-1.403c-.023-.144-.566-.114-.618.031l.402,2.061-.174.941c-.041.224.841.247.907-.037l.692-3.017ZM119.415,208.314c.106.081.338.1.423-.133.278-.066.3-.363.077-.427-.33-.071-.414.153-.457.281-.033.099-.166.185-.044.279ZM124.165,207.87c-.083-.152-.614-.14-.625.019l-.056.815c-.168-.048-.508-.234-.703-.112-.448.282-.513,1.76-.04,2.625l1.418-.093.005-3.253ZM128.307,210.948l-.115-2.343-1.549-.011.046,2.5c.003.161.536.109.54-.09l.011-.471c.013-.545-.164-1.136.268-1.503.314.704.095,1.406.183,2.062.359.252.622-.036.617-.143ZM130.368,210.178c-.005-.527.201-1.284-.312-1.599l-1.307-.014-.01,2.59c.273.063.551-.015.619-.101l.095-1.914.245-.002.155,2.168c.794-.244.52-.734.516-1.127ZM131.429,211.039l-.015-2.437c-.261-.048-.442-.025-.584.056l.011,2.447c.208.118.438.1.588-.066ZM131.573,207.873c-.032-.149-.533-.189-.519.174-.347.187.023.499.184.181.142-.096.354-.265.335-.355ZM133.628,211.02c-.44-.882-.433-1.647,0-2.403-.351-.129-.685-.05-.76.159l-.263.729c-.165-.481-.067-.952-.084-1.577-.006-.236-.628-.213-.623.012l.067,3.15c.004.169.572.115.565-.089l-.025-.697c-.117-.325.297-.377.213-.017l.201.696c.072.248.592.264.71.037ZM131.637,182.044c.217.101.659.155.822-.075l.801-1.134c-.362-.16-.957-.22-1.2.022-.303.302-.284.852-.423,1.187ZM130.099,182.641l1.056,3.908.082,2.653h1.266s.084-2.655.084-2.655l1.076-3.863c-.54-.206-1.31-.188-1.365.066l-.424,1.949c-.275-.704-.265-1.313-.326-2.017-.458-.146-.927-.159-1.449-.041ZM126.227,182.647l.949,6.557,1.657.002,1.052-6.574c-.571-.088-.997-.124-1.383.053l-.489,4.387-.401-4.413c-.501-.122-.882-.138-1.385-.011ZM129.933,201.245c-.295,1.014-2.486.8-3.806-.686l-.04,3.818c2.798.908,6.147.759,7.621-1.895,1.032-1.859.244-3.832-1.365-4.976l-1.823-1.296c-.259-.184-.37-.503-.3-.733.271-.893,2.32-.794,3.539.767l.007-3.837c-2.781-1.254-6.56-.589-7.468,1.981-1.577,4.46,4.141,5.119,3.636,6.857ZM125.978,208.736c-.342-.298-1.12-.328-1.295.188-.186.545-.149,1.23-.045,1.792.092.494.723.581,1.084.467.337-.106.566-.544.466-.932-.085-.121-.515-.077-.561.084-.029.101-.001.366-.29.391-.175.015-.248-.491-.147-.636.122-.177.502-.083.801-.077.461-.125.272-1.028-.014-1.277ZM122.34,184.477l.04,3.315c.013,1.046.999,1.599,1.959,1.499.772-.08,1.565-.731,1.559-1.781l-.018-3.382c-.005-1.02-1.05-1.675-1.886-1.612-1.023.077-1.668.905-1.655,1.961ZM121.953,191.946l-4.915.006-3.687,12.799,4.342.012.353-1.546,2.709-.004.301,1.561,4.348-.02-3.45-12.808ZM117.834,182.634v6.575s1.284.003,1.284.003l.068-3.797,1.083,3.781c.491.051.91.086,1.505-.031l-.009-6.506c-.513-.127-.911-.118-1.328-.008l-.087,3.569-1.065-3.571c-.494-.118-.948-.122-1.451-.015ZM240.491,153.092c-.718-.883-1.865-1.035-2.879-.462-1.276.721-1.703,2.227-.79,3.373.825,1.036,2.358,1.194,3.44.106.906-.91.93-2.152.228-3.016ZM216.695,172.732l2.442,3.102c1.13,1.436.982,5.447,4.032,5.962.876.148,1.668-.066,2.209-.557,1.268-1.151.956-3.534-.551-5.065-2.094-2.127-5.011-3.364-8.132-3.442ZM230.956,158.863c-3.893-.488-7.717.74-10.85,3.036-.96.703-1.982,1.077-3.154,1.092l-3.444.046,3.267-2.617,3.83-3.861,3.589-2.133c7.056-5.041,11.28-14.829,7.321-22.892-1.13-.063-1.995.382-2.806,1.028-2.319,1.847-4.24,4.129-5.699,6.743-1.283,2.299-1.92,4.751-2.404,7.328l-1.215,6.475c-.301,1.605-.989,2.979-2.069,4.204-1.688,1.915-3.535,3.569-5.691,4.948l-5.844,3.737c.703.408,1.292.165,1.88-.003,2.039-.583,4.006-1.204,6.152-1.398,2.222-.202,4.316.29,6.472.715l4.908.967c4.068.455,8.731-1.173,10.631-4.748-1.205-1.506-2.913-2.42-4.873-2.666ZM125.523,209.577c.033-.22.047-.387-.008-.688-.168.066-.297.202-.333.292-.039.099.022.368.34.396ZM111.559,124.085c.474-.972-.186-2.099-1.068-2.581-1.051-.574-2.26.049-2.657,1.086-.377.983.056,2.106,1.09,2.579.83.38,2.103.007,2.636-1.085ZM107.738,209.174c-.025-.064-.107-.149-.283-.277-.142.197-.133.558.012.732.299-.18.296-.391.271-.455ZM123.22,210.729h.245c.331-2.283-.576-2.283-.245,0ZM111.47,210.806c.289-.054.339-.692.165-.85-.43.084-.441.831-.165.85ZM99.228,200.105c.51,1.449.421,3.015.517,4.592-2.379-3.603-5.769-6.303-9.907-7.584-4.927-1.526-10.931-.269-12.399,4.902-.461,1.624-.032,3.163,1.008,4.329,1.083,1.215,2.754,1.657,4.251,1.05,1.104-.448,1.566-1.535,1.167-2.656-.072-.202-.117-.448-.314-.496-.466-.114-.77.616-1.5.606-.316-.004-.683-.102-.866-.494-.335-.718.012-1.645.742-2.047,1.489-.819,3.383-.145,3.997,1.447.994,2.573-.562,5.192-3.173,5.827-2.617.637-5.156-.362-6.505-2.743-1.889-3.335-1.004-7.485,2.011-9.898,5.438-4.279,13.064-2.242,18.198,1.867-2.602-5.539-8.454-8.556-14.321-8.094-2.127.168-4.048.531-6.052,1.159l-6.066,1.902c-2.116.664-4.118,1.276-6.334,1.606-1.573,1.236-3.602,2.609-4.264,2.06-.267-.222-.19-.846.08-1.667-5.435.236-10.859-.583-15.994-2.461-6.043-2.21-11.553-6.284-13.837-12.391-.797-2.133-.908-4.393-.202-6.512.819-2.459,3.02-3.885,5.582-3.599.98.109,1.947.275,2.736.928,1.582,1.309,2.184,3.494,1.547,5.451-.445,1.367-1.768,2.197-3.192,1.99-1.125-.164-1.925-1.153-1.913-2.265.006-.547.281-.929.737-1.101,1.006-.381,1.506.913,1.921.642.767-.5.872-1.585.299-2.305-.871-1.094-2.327-1.475-3.68-1.07-1.217.364-2.103,1.484-2.318,2.907-.622,4.106,2.329,8.345,5.527,10.918,2.333,1.876,4.872,3.232,7.702,4.27,5.009,1.837,10.605,2.734,16.034,2.345.931-1.923,2.142-3.981,2.629-4.792.137-.228.217-.358.217-.358l8.047-14.485.551-1.041,12.83-4.241c3.844-1.271,7.311-3.082,10.717-5.251,5.982-3.81,11.066-9.189,12.292-16.331.754-4.391-.276-8.829-4.812-9.947,7.534,7.763-2.546,19.881-9.907,24.581-5.776,3.688-11.932,6.553-18.401,8.716-2.36.789-4.612,1.246-7.069,1.269-.548.005-1.608-.162-1.637-.723.052-.58.806-1.079,1.22-1.366l3.289-2.279-3.158-.206c-.582-.038-1.113-.577-1.673-.989,1.632-.494,2.919-1.292,4.019-2.531,2.675-3.013,5.03-6.195,7.333-9.512.297-.427.833-.584,1.25-.198,2.7,2.499,7.478-.853,8.708-4.356-2.592,2.026-6.507,4.077-9.56,3.478,3.423-6.266,6.986-12.099,11.212-17.59,1.107-1.438,2.335-2.507,2.953-4.262l2.048-5.809c.726-2.059,1.281-4.046,2.279-5.966,2.95-5.676,9.328-8.507,15.483-6.719,4.323,1.256,7.447,4.823,8.141,9.264-.204.85.114,1.535.883,1.95l.947,4.295c.409,1.855-.101,3.776-1.489,5.16l-.661-1.245-2.329,2.003.016,4.875c.507,6.695-1.406,13.147-5.422,18.58-4.808,6.505-11.805,11.118-19.628,13.174-1.025.269-1.979.255-2.802.9l-3.883,3.04-.788.776-17.234,16.963c.077-.023.155-.041.232-.064l7.052-2.145c4.173-1.269,8.861-2.313,13.095-1.185,4.106,1.094,7.583,3.73,9.767,7.364.749,1.247,1.544,2.432,2.023,3.793ZM89.744,148.756c.667.86,1.815,1.224,2.936.801,2.098-.792,3.734-2.665,4.112-4.962l-1.653,1.571c-.717.681-1.746,1.23-2.769,1.18-.259-.012-.291-.657-.353-.956l-2.273,2.365ZM88.65,146.636c1.294-.982,2.254-2.307,2.806-3.822-.994.211-1.273.857-1.86,1.286-1.274,1.191-3.268,1.545-3.455.759-.192-.806,1.113-1.977,1.17-3.209l-3.142,3.811c-.318.386-.495.919-.328,1.314.525,1.244,3.034,1.208,4.809-.138ZM82.035,161.868l3.525-2.432-1.435-1.106c-2.56,1.997-5.428,3.27-8.562,3.63-.243.028-.506.331-.557.482-.053.157-.011.419.07.747-.301.127-.67.089-.972.451,2.566.095,5.767-.279,7.931-1.772ZM88.61,160.093l-7.79,2.997c.491.773,3.465.136,4.199-.266,1.284-.704,2.72-1.318,3.591-2.731ZM89.1,155.54c1.5-.86,2.769-2.034,3.258-3.76l-3.217,1.7c.03-.427.168-.732-.117-1.088l-3.641,2.82c-.829.642,1.282,1.725,3.717.329ZM99.112,153.586l-2.04,1.476c-.788.57-1.652.94-2.595.857.019-.495.09-.791-.003-1.228l-2.081,2.117c-.556.565-1.131.929-1.924,1.257.968.935,3.49.384,4.717-.308,1.384-.78,2.542-1.829,3.585-3.001.281-.316.476-.703.342-1.17ZM102.657,146.026l-1.578,1.496c-.65.617-1.637,1.032-2.54.814l-.435-.472c-.04-.044-1.918,1.258-2.259,2.529,2.954,1.184,6.061-1.221,6.812-4.368ZM118.77,125.593c-1.031.251-2.064.642-2.876,1.308-.609.499-.177,1.286.313,1.731l3.209,2.916c1.281-2.266.238-6.171-.646-5.955ZM109.776,136.571c.793-.181,1.388.101,1.689.84.227.214.5.517.775.526.529.017,1.212-1.545,2.534-.468.889-.465.127-1.623.847-2.956.58-1.074-1.14-1.686-.921-3.649.17-1.382-.129-2.633-.754-3.903.162-1.448,1.208-2.532,2.494-3.189.532-.264,1.153-.721,1.117-1.378-.102-1.818-1.113-3.385-2.591-4.439-3.467-2.473-8.295-1.499-10.411,2.173-1.149,1.994-.737,4.328,1.062,5.708.82.629,1.71.913,2.797,1.38-1.664,1.33-2.435,3.015-2.026,4.993.395,1.906,1.568,3.581,3.388,4.363ZM62.528,205.552c2.548.33,4.756-2.527,5.256-5.116l.552-1.75,1.246-2.142c-3.782,1.377-8.037,4.649-7.054,9.008ZM168.134,196.237c.48,1.357,1.258,1.96,1.647,3.861.554,2.707,2.596,5.566,5.351,5.359.948-4.438-3.11-7.524-6.998-9.221ZM181.854,198.19c-1.36-.388-2.736-.434-4.157-.578l-3.751-.38c-.159.417.049.508.262.622,1.899,1.017,3.33,3.745,7.144,4.427,1.539.275,3.134-.012,4.339-1.026-.861-1.629-2.213-2.574-3.837-3.065ZM203.838,170.189c-1.242.078-2.42.389-3.315,1.292-1.316,1.329-1.748,3.326-1.126,5.075.493,1.386,1.752,2.133,3.195,2.011.786-.067,1.457-.434,1.77-1.017.365-.679.389-1.479-.058-2.11-.203-.287-.539-.444-.828-.424-.615.043-.937,1.066-1.611.968-.969-.794-.728-2.352.296-3.035,1.039-.693,2.328-.833,3.511-.265.927.445,1.788,1.446,2.033,2.641.309,1.504-.052,2.977-.667,4.4-2.843,6.582-9.839,10.61-16.664,12.304-7.93,1.968-16.082,1.391-23.77-1.276l-7.865-2.317c-6.347-1.364-13.302.381-17.324,5.512-.921,1.175-1.912,2.369-2.457,3.776-.739,1.907-.923,3.961-1.135,5.939,2.607-3.242,5.778-5.604,9.62-6.809,4.418-1.385,9.649-.743,12.04,3.345,1.09,1.863,1.039,4.156-.351,5.828-1.594,1.917-4.812,2.1-5.618.348-.294-.64-.392-1.599.105-2.101.437-.441,1.686.89,2.433.146.307-.306.471-.772.283-1.243-.534-1.341-2.118-1.794-3.393-1.16-1.383.687-2.16,2.052-1.867,3.649.318,1.733,1.619,3.292,3.351,3.806,3.015.896,6.078-.664,7.304-3.517,1.368-3.183.498-6.747-2.086-9.055-3.709-3.315-9.999-3.292-14.353-1.122l-4.771,2.802c1.575-2.846,3.816-5.177,6.705-6.641,5.052-2.559,10.67-1.826,15.972-.147l7.014,2.221c9.106,2.884,19.088,1.685,27.62-2.349,5.484-2.593,10.465-6.84,11.88-12.855.415-1.762.327-3.52-.324-5.158-.919-2.314-3.072-3.618-5.552-3.462ZM63.93,197.548l-4.648.369c-2.506,0-4.864.801-6.598,2.58-.267.274-.405.64-.327.996.194.896,3.08,1.591,5.647.475,2.239-.974,4.199-2.456,5.927-4.421Z" style="fill: #db1218;"/>
</svg>